<svg width="32" height="32" viewBox="0 0 32 32" fill="none" xmlns="http://www.w3.org/2000/svg">
<path fill-rule="evenodd" clip-rule="evenodd" d="M6.62389 0H25.3761C29.0344 0 32 2.96562 32 6.62389V25.3761C32 29.0344 29.0344 32 25.3761 32H6.62389C2.96562 32 0 29.0344 0 25.3761V6.62389C0 2.96562 2.96562 0 6.62389 0ZM25.1675 18.9311L25.1973 18.8483H25.2072H27.1679L27.1314 19.0006C26.9162 19.8816 26.0153 22.7564 23.5314 22.7564C21.8986 22.7564 20.6831 21.1865 19.9247 19.7856C18.633 22.041 17.4043 22.6404 16.5928 22.7398C16.4074 22.7696 16.2186 22.7862 16 22.7862C15.7814 22.7862 15.5694 22.7696 15.3707 22.7332C14.5726 22.6206 13.3637 22.0112 12.0886 19.7856C11.3268 21.1865 10.1147 22.7564 8.48189 22.7564C5.99793 22.7564 5.09708 19.8816 4.88181 19.0006L4.84538 18.8483H6.80605L6.83585 18.9311C7.05775 19.567 7.53467 20.6334 8.48189 20.6334C9.42911 20.6334 10.4392 18.9774 11.0222 17.5401C9.71393 14.2977 9.40923 11.7375 10.1677 10.3333C10.5585 9.60795 11.1944 9.21052 11.9561 9.21052H12.135C12.9166 9.21052 13.5624 9.61126 13.9532 10.3366C14.9071 12.1052 14.0128 15.2018 13.0855 17.5069C14.1917 19.9478 15.1223 20.4777 15.4701 20.5937C15.7947 20.7261 16.2153 20.7228 16.5233 20.597C16.881 20.4777 17.8083 19.9478 18.9178 17.5069C17.9905 15.2018 17.0963 12.1052 18.0501 10.3366C18.4409 9.61126 19.0867 9.21052 19.8684 9.21052H20.0472C20.8089 9.21052 21.4448 9.61126 21.8356 10.3333C22.5908 11.7375 22.2894 14.2977 20.9812 17.5401C21.5641 18.9774 22.614 20.6334 23.5214 20.6334C24.4289 20.6334 24.9423 19.567 25.1675 18.9311ZM19.9528 14.7292C20.5173 12.7854 20.4047 11.7571 20.236 11.4461L20.2161 11.413C20.1598 11.3103 20.0571 11.2507 19.9445 11.2507C19.8419 11.2507 19.7458 11.3004 19.6895 11.3832C19.6663 11.4096 19.6564 11.4262 19.6431 11.4494C19.481 11.7538 19.3784 12.7755 19.9528 14.7292ZM11.7607 11.4461C11.5918 11.7574 11.4792 12.7874 12.0455 14.7348C12.6218 12.7742 12.5191 11.7541 12.3569 11.4494C12.3536 11.4444 12.3502 11.4386 12.3469 11.4328C12.3436 11.427 12.3403 11.4212 12.337 11.4163C12.2774 11.3103 12.1747 11.2507 12.0621 11.2507C11.9627 11.2507 11.8733 11.297 11.8137 11.3732C11.7872 11.403 11.774 11.4229 11.7607 11.4461Z" fill="#8571F8"/>
</svg>
