<svg width="114" height="20" viewBox="0 0 114 20" fill="none" xmlns="http://www.w3.org/2000/svg">
<path d="M88.9202 0.144531C89.9982 0.144531 92.093 0.144531 93.6651 1.36924C94.8008 2.24352 95.4678 3.76086 95.4678 5.39381C95.4678 7.90103 93.8093 8.92343 93.2865 9.21245C94.5664 9.41838 95.3236 9.97112 95.8176 10.4372C96.9822 11.5463 97.2129 13.06 97.2129 14.0824C97.2129 15.2204 96.892 16.8244 95.5544 18.0203C94.0977 19.3028 92.3238 19.5954 90.6364 19.5954H84.1176V0.144531H88.9202ZM87.8998 8.22257H88.9778C89.5583 8.22257 91.9164 8.16476 91.9164 5.68644C91.9164 3.90898 90.5499 3.23702 89.0067 3.23702H87.8998V8.22257ZM87.8998 16.5029H89.5295C90.229 16.5029 91.2746 16.474 92.1183 15.9791C93.0485 15.4263 93.3117 14.4906 93.3117 13.7356C93.3117 13.125 93.1062 12.0737 91.8839 11.521C91.0691 11.1416 90.11 11.1416 89.2951 11.1416H87.8998V16.5065V16.5029Z" fill="#8571F8"/>
<path d="M46.3169 15.7732H38.4893L36.773 19.8555H32.6699L41.0204 0.404663H43.9878L52.1075 19.8555H48.0332L46.3169 15.7732ZM45.21 12.6807L42.4446 5.68284L39.6791 12.6807H45.21Z" fill="#8571F8"/>
<path d="M57.1841 8.63796L64.1212 0.639404H68.7651L60.7788 9.37857L69.187 19.5628H64.3159L57.6059 11.0802L57.1805 11.5065V19.5628H53.4992V0.639404H57.1805V8.63796H57.1841Z" fill="#8571F8"/>
<path d="M81.0348 3.67056H74.0508V8.01666H80.7427V11.2826H74.0508V16.5896H81.0348V19.8555H70.2686V0.404663H81.0348V3.67056Z" fill="#8571F8"/>
<path d="M102.711 10.961L96.0483 0.404663H100.53L104.691 7.17128L108.852 0.404663H113.333L106.494 10.961V19.8555H102.711V10.961Z" fill="#8571F8"/>
<path d="M30.0198 14.2522L29.9838 14.3497C29.6485 15.2999 28.8841 16.8895 27.5176 16.8895C26.1511 16.8895 24.5935 14.4184 23.7281 12.2796C25.6571 7.48555 26.1078 3.71026 24.9937 1.64017C24.424 0.58526 23.4974 0 22.3869 0H22.1237C20.9843 0 20.0433 0.585261 19.4736 1.6474C18.071 4.25217 19.3943 8.82948 20.7644 12.2327C19.1202 15.8707 17.7357 16.6582 17.2057 16.8353C16.7442 17.0267 16.106 17.0303 15.6229 16.8316C15.1037 16.6582 13.7191 15.8671 12.075 12.2363C13.4451 8.83309 14.7683 4.25578 13.3658 1.65101C12.7925 0.588873 11.8515 0.0036128 10.7157 0.0036128H10.4525C9.34199 0.0036128 8.41536 0.585261 7.84568 1.64379C6.73156 3.71387 7.18226 7.48916 9.11123 12.2832C8.2459 14.422 6.74239 16.8931 5.3218 16.8931C3.90121 16.8931 3.19091 15.2999 2.8556 14.3533L2.82315 14.2558H0L0.0432704 14.4364C0.360559 15.7334 1.6838 19.9603 5.3218 19.9603C7.73391 19.9603 9.52948 17.6048 10.6436 15.5275C12.5293 18.8512 14.3176 19.7579 15.4967 19.9241C15.7887 19.9747 16.0988 20 16.4161 20C16.7334 20 17.0146 19.9783 17.285 19.9314C18.4821 19.7832 20.2957 18.8945 22.2066 15.5238C23.3207 17.6012 25.1127 19.9566 27.5284 19.9566C31.1664 19.9566 32.4896 15.7262 32.8069 14.4328L32.8502 14.2522H30.027H30.0198ZM21.7631 3.25506C21.7847 3.21893 21.8028 3.19003 21.8352 3.1539C21.9254 3.02384 22.0804 2.94436 22.2427 2.94436C22.4229 2.94436 22.5852 3.03829 22.6717 3.19364L22.6897 3.22254C22.6897 3.22254 22.7042 3.24061 22.7078 3.25145C23.0215 3.83309 23.0755 5.48772 22.2535 8.26228C21.4134 5.46965 21.4566 3.82587 21.7631 3.25867V3.25506ZM10.5823 8.25867C9.76023 5.48049 9.81432 3.82948 10.128 3.24783C10.1496 3.21171 10.1713 3.17919 10.2109 3.13584C10.3047 3.01301 10.4489 2.94075 10.6039 2.94075C10.7842 2.94075 10.9501 3.0383 11.0402 3.20087C11.051 3.21893 11.0618 3.23338 11.0727 3.25145C11.3791 3.81864 11.4188 5.46243 10.5823 8.25506V8.25867Z" fill="#8571F8"/>
</svg>
