<svg width="26" height="16" viewBox="0 0 26 16" fill="none" xmlns="http://www.w3.org/2000/svg">
<path id="Vector" d="M23.76 11.3655L23.7315 11.4427C23.4661 12.1947 22.8611 13.4528 21.7796 13.4528C20.698 13.4528 19.4652 11.497 18.7803 9.80426C20.307 6.00985 20.6637 3.02179 19.782 1.38337C19.3311 0.548426 18.5977 0.0852051 17.7187 0.0852051H17.5104C16.6086 0.0852051 15.8638 0.548426 15.4129 1.38909C14.3028 3.4507 15.3501 7.07354 16.4345 9.76708C15.1333 12.6465 14.0374 13.2698 13.6179 13.4099C13.2527 13.5615 12.7475 13.5643 12.3651 13.4071C11.9542 13.2698 10.8584 12.6436 9.55709 9.76994C10.6415 7.0764 11.6888 3.45356 10.5787 1.39194C10.125 0.551285 9.38017 0.0880645 8.48125 0.0880645H8.27292C7.39398 0.0880645 6.66057 0.548426 6.20968 1.38623C5.32788 3.02465 5.6846 6.01271 7.21134 9.80712C6.52645 11.4999 5.33645 13.4557 4.21209 13.4557C3.08772 13.4557 2.52554 12.1947 2.26014 11.4455L2.23446 11.3683H0L0.0342475 11.5113C0.285374 12.5378 1.33269 15.8833 4.21209 15.8833C6.12122 15.8833 7.54237 14.019 8.42417 12.3748C9.91666 15.0055 11.3321 15.7232 12.2653 15.8547C12.4964 15.8947 12.7418 15.9148 12.993 15.9148C13.2441 15.9148 13.4667 15.8976 13.6807 15.8604C14.6281 15.7432 16.0636 15.0398 17.576 12.372C18.4578 14.0161 19.8761 15.8805 21.7881 15.8805C24.6675 15.8805 25.7148 12.5321 25.966 11.5085L26.0002 11.3655H23.7657H23.76ZM17.225 2.66151C17.2421 2.63292 17.2564 2.61004 17.2821 2.58145C17.3534 2.47851 17.4762 2.4156 17.6046 2.4156C17.7473 2.4156 17.8757 2.48995 17.9442 2.6129L17.9584 2.63578C17.9584 2.63578 17.9698 2.65007 17.9727 2.65865C18.221 3.11901 18.2638 4.42861 17.6131 6.62462C16.9482 4.41431 16.9825 3.11329 17.225 2.66437V2.66151ZM8.37565 6.62176C7.725 4.42289 7.76782 3.11615 8.01609 2.65579C8.03321 2.6272 8.05033 2.60146 8.08172 2.56715C8.15592 2.46993 8.27007 2.41274 8.39278 2.41274C8.53547 2.41274 8.66674 2.48995 8.73808 2.61862C8.74664 2.63292 8.7552 2.64435 8.76376 2.65865C9.00633 3.10758 9.03771 4.4086 8.37565 6.6189V6.62176Z" fill="#C7C7C7"/>
</svg>
